<svg width="75" height="75" viewBox="0 0 75 75" fill="none" xmlns="http://www.w3.org/2000/svg">
<path d="M26.3861 26.5571C27.2914 25.6518 28.7591 25.6518 29.6643 26.5571L37.2974 34.1902L44.9304 26.5571C45.8357 25.6519 47.3034 25.6519 48.2086 26.5571C49.1139 27.4624 49.1139 28.9301 48.2086 29.8353L40.5756 37.4684L48.2086 45.1014C49.1139 46.0066 49.1139 47.4743 48.2086 48.3796C47.3034 49.2848 45.8357 49.2848 44.9304 48.3796L37.2974 40.7466L29.6644 48.3796C28.7591 49.2848 27.2914 49.2848 26.3862 48.3796C25.4809 47.4743 25.4809 46.0066 26.3862 45.1014L34.0192 37.4684L26.3861 29.8353C25.4809 28.93 25.4809 27.4623 26.3861 26.5571Z" fill="#C64A23"/>
<path fill-rule="evenodd" clip-rule="evenodd" d="M22.8227 12.0279C32.3655 10.9614 42.2292 10.9614 51.7719 12.0279C57.4167 12.6588 61.9752 17.1053 62.6393 22.7828C63.7804 32.5399 63.7804 42.3968 62.6393 52.154C61.9752 57.8315 57.4167 62.2779 51.7719 62.9088C42.2292 63.9754 32.3655 63.9754 22.8227 62.9088C17.1779 62.2779 12.6194 57.8315 11.9554 52.154C10.8142 42.3968 10.8142 32.5399 11.9554 22.7828C12.6194 17.1053 17.1779 12.6588 22.8227 12.0279ZM51.257 16.6353C42.0565 15.607 32.5382 15.607 23.3377 16.6353C19.8006 17.0306 16.9693 19.8223 16.5601 23.3213C15.4607 32.7207 15.4607 42.2161 16.5601 51.6154C16.9693 55.1144 19.8006 57.9061 23.3377 58.3014C32.5382 59.3297 42.0564 59.3297 51.257 58.3014C54.7941 57.9061 57.6253 55.1144 58.0346 51.6154C59.1339 42.2161 59.1339 32.7207 58.0346 23.3213C57.6253 19.8223 54.7941 17.0306 51.257 16.6353Z" fill="#C64A23"/>
</svg>
